_RobotoSerifText-RegularWdth1500.ufo
<glyph name="exclam" format="2">
  <advance width="317.84000000000003"/>
  <unicode hex="0021"/>
  <outline>
    <contour>
      <point x="218.66" y="733.75" type="line"/>
      <point x="218.66" y="551.0"/>
      <point x="187.60000000000002" y="450.0"/>
      <point x="187.60000000000002" y="216.4" type="curve"/>
      <point x="130.24" y="216.4" type="line"/>
      <point x="130.24" y="450.0"/>
      <point x="99.6" y="550.0"/>
      <point x="99.6" y="733.75" type="curve"/>
    </contour>
    <component base="period" xOffset="34.82"/>
  </outline>
</glyph>
<glyph name="zero" format="2">
  <advance width="658.0"/>
  <unicode hex="0030"/>
  <outline>
    <contour>
      <point x="329.0" y="-11.0" type="curve" smooth="yes"/>
      <point x="496.07641434276" y="-11.0"/>
      <point x="613.94" y="116.5"/>
      <point x="613.94" y="304.0" type="curve" smooth="yes"/>
      <point x="613.94" y="491.5"/>
      <point x="495.72" y="619.0"/>
      <point x="329.0" y="619.0" type="curve" smooth="yes"/>
      <point x="162.28" y="619.0"/>
      <point x="44.06" y="491.5"/>
      <point x="44.06" y="304.0" type="curve" smooth="yes"/>
      <point x="44.06" y="116.5"/>
      <point x="161.92358565724" y="-11.0"/>
    </contour>
    <contour>
      <point x="329.0" y="49.8" type="curve" smooth="yes"/>
      <point x="214.53316129016002" y="49.8"/>
      <point x="147.06" y="146.6"/>
      <point x="147.06" y="304.0" type="curve" smooth="yes"/>
      <point x="147.06" y="461.4"/>
      <point x="214.46" y="559.15"/>
      <point x="329.0" y="559.15" type="curve" smooth="yes"/>
      <point x="443.53999999999996" y="559.15"/>
      <point x="510.94" y="461.4"/>
      <point x="510.94" y="304.0" type="curve" smooth="yes"/>
      <point x="510.94" y="145.65"/>
      <point x="443.46683870984" y="49.8"/>
    </contour>
  </outline>
</glyph>
<glyph name="at" format="2">
  <advance width="1069.56"/>
  <unicode hex="0040"/>
  <outline>
    <contour>
      <point x="546.38" y="-96.25" type="curve" smooth="yes"/>
      <point x="298.36" y="-96.25"/>
      <point x="122.44" y="29.1"/>
      <point x="122.44" y="231.0" type="curve" smooth="yes"/>
      <point x="122.44" y="450.0"/>
      <point x="318.36" y="616.25"/>
      <point x="584.02" y="616.25" type="curve" smooth="yes"/>
      <point x="815.6600000000001" y="616.25"/>
      <point x="947.6800000000001" y="496.15"/>
      <point x="947.6800000000001" y="342.0" type="curve" smooth="yes"/>
      <point x="947.6800000000001" y="189.25"/>
      <point x="852.02" y="108.35"/>
      <point x="779.5799999999999" y="108.35" type="curve" smooth="yes"/>
      <point x="729.52" y="108.35"/>
      <point x="705.3399999999999" y="128.9"/>
      <point x="716.4" y="179.0" type="curve" smooth="yes"/>
      <point x="775.4" y="468.15" type="line"/>
      <point x="721.52" y="468.15" type="line"/>
      <point x="681.8" y="386.15" type="line"/>
      <point x="668.48" y="381.15" type="line"/>
      <point x="621.76" y="150.85" type="line"/>
      <point x="624.4200000000001" y="145.85"/>
      <point x="629.04" y="143.8"/>
      <point x="630.46" y="143.35" type="curve"/>
      <point x="635.8" y="95.85"/>
      <point x="682.36" y="54.85"/>
      <point x="764.3199999999999" y="54.85" type="curve" smooth="yes"/>
      <point x="883.8" y="54.85"/>
      <point x="1012.5" y="159.0"/>
      <point x="1012.5" y="342.0" type="curve" smooth="yes"/>
      <point x="1012.5" y="532.0"/>
      <point x="846.14" y="673.0"/>
      <point x="584.02" y="673.0" type="curve" smooth="yes"/>
      <point x="285.06" y="673.0"/>
      <point x="58.04" y="487.0"/>
      <point x="58.04" y="231.0" type="curve" smooth="yes"/>
      <point x="58.04" y="-8.0"/>
      <point x="265.06" y="-153.0"/>
      <point x="546.38" y="-153.0" type="curve" smooth="yes"/>
      <point x="671.28" y="-153.0"/>
      <point x="789.36" y="-125.95"/>
      <point x="855.64" y="-99.4" type="curve"/>
      <point x="834.98" y="-45.650000000000006" type="line"/>
      <point x="768.38" y="-71.25"/>
      <point x="667.94" y="-96.25"/>
    </contour>
    <contour>
      <point x="485.14" y="48.85" type="curve" smooth="yes"/>
      <point x="575.0999999999999" y="48.85"/>
      <point x="620.1199999999999" y="110.05"/>
      <point x="699.3399999999999" y="208.75" type="curve"/>
      <point x="675.94" y="237.25" type="line"/>
      <point x="612.44" y="152.7"/>
      <point x="560.52" y="99.65"/>
      <point x="491.86" y="99.65" type="curve" smooth="yes"/>
      <point x="432.98" y="99.65"/>
      <point x="402.88" y="140.924397590375"/>
      <point x="402.88" y="212.95" type="curve" smooth="yes"/>
      <point x="402.88" y="314.25164835165"/>
      <point x="466.36" y="422.4"/>
      <point x="560.9200000000001" y="422.4" type="curve" smooth="yes"/>
      <point x="619.14" y="422.4"/>
      <point x="661.76" y="390.45"/>
      <point x="681.22" y="306.5" type="curve"/>
      <point x="718.2" y="328.1" type="line"/>
      <point x="690.78" y="437.1"/>
      <point x="637.3" y="474.15"/>
      <point x="557.28" y="474.15" type="curve" smooth="yes"/>
      <point x="401.14" y="474.15"/>
      <point x="310.96" y="341.4"/>
      <point x="310.96" y="224.15" type="curve" smooth="yes"/>
      <point x="310.96" y="110.9"/>
      <point x="383.0" y="48.85"/>
    </contour>
  </outline>
</glyph>
<glyph name="dieresis" format="2">
  <advance width="587.9200000000001"/>
  <unicode hex="00A8"/>
  <anchor x="294.0" y="526.0" name="_top"/>
  <outline>
    <contour>
      <point x="167.18" y="602.55" type="curve" smooth="yes"/>
      <point x="206.44" y="602.55"/>
      <point x="235.18" y="626.2"/>
      <point x="235.18" y="665.35" type="curve" smooth="yes"/>
      <point x="235.18" y="703.55"/>
      <point x="206.44" y="727.2"/>
      <point x="167.18" y="727.2" type="curve" smooth="yes"/>
      <point x="128.42000000000002" y="727.2"/>
      <point x="99.6" y="703.55"/>
      <point x="99.6" y="665.35" type="curve" smooth="yes"/>
      <point x="99.6" y="626.15"/>
      <point x="128.42000000000002" y="602.55"/>
    </contour>
    <contour>
      <point x="420.88" y="602.55" type="curve" smooth="yes"/>
      <point x="459.64" y="602.55"/>
      <point x="488.46000000000004" y="626.2"/>
      <point x="488.46000000000004" y="665.35" type="curve" smooth="yes"/>
      <point x="488.46000000000004" y="703.55"/>
      <point x="459.64" y="727.2"/>
      <point x="420.88" y="727.2" type="curve" smooth="yes"/>
      <point x="381.7" y="727.2"/>
      <point x="352.88" y="703.55"/>
      <point x="352.88" y="665.35" type="curve" smooth="yes"/>
      <point x="352.88" y="626.15"/>
      <point x="381.7" y="602.55"/>
    </contour>
  </outline>
</glyph>
<glyph name="logicalnot" format="2">
  <advance width="658.0"/>
  <unicode hex="00AC"/>
  <outline>
    <contour>
      <point x="487.6" y="350.0" type="line"/>
      <point x="487.6" y="154.7" type="line"/>
      <point x="556.48" y="154.7" type="line"/>
      <point x="556.48" y="373.2" type="line"/>
      <point x="101.52" y="373.2" type="line"/>
      <point x="101.52" y="309.15" type="line"/>
      <point x="534.1800000000001" y="309.15" type="line"/>
    </contour>
  </outline>
</glyph>
<glyph name="paragraph" format="2">
  <advance width="720.28"/>
  <unicode hex="00B6"/>
  <outline>
    <contour>
      <point x="677.36" y="710.0" type="line"/>
      <point x="677.36" y="661.25" type="line"/>
      <point x="664.44" y="661.25" type="line" smooth="yes"/>
      <point x="606.86" y="661.25"/>
      <point x="564.44" y="654.25"/>
      <point x="564.44" y="625.25" type="curve" smooth="yes"/>
      <point x="564.44" y="0.0" type="line"/>
      <point x="493.62" y="0.0" type="line"/>
      <point x="493.62" y="710.0" type="line"/>
    </contour>
    <contour>
      <point x="367.5" y="0.0" type="line"/>
      <point x="296.68" y="0.0" type="line"/>
      <point x="296.68" y="342.0" type="line"/>
      <point x="290.68" y="342.0" type="line" smooth="yes"/>
      <point x="147.01999999999998" y="342.0"/>
      <point x="57.64" y="420.6"/>
      <point x="57.64" y="531.5" type="curve" smooth="yes"/>
      <point x="57.64" y="640.4"/>
      <point x="142.82" y="710.0"/>
      <point x="286.6" y="710.0" type="curve" smooth="yes"/>
      <point x="367.5" y="710.0" type="line"/>
    </contour>
    <contour>
      <point x="531.8" y="710.0" type="line"/>
      <point x="531.8" y="661.25" type="line"/>
      <point x="333.64" y="661.25" type="line"/>
      <point x="333.64" y="710.0" type="line"/>
    </contour>
  </outline>
</glyph>
<glyph name="cedilla" format="2">
  <advance width="705.0"/>
  <unicode hex="00B8"/>
  <anchor x="345.8" y="34.0" name="_bottom"/>
  <outline>
    <contour>
      <point x="360.08" y="4.0" type="line"/>
      <point x="291.79999999999995" y="4.0" type="line"/>
      <point x="257.08" y="-95.3" type="line"/>
      <point x="284.94" y="-95.3" type="line" smooth="yes"/>
      <point x="351.66648648618" y="-95.3"/>
      <point x="373.9" y="-115.75"/>
      <point x="373.9" y="-145.2" type="curve" smooth="yes"/>
      <point x="373.9" y="-173.6"/>
      <point x="350.12" y="-188.45"/>
      <point x="313.74" y="-188.45" type="curve" smooth="yes"/>
      <point x="270.82" y="-188.45"/>
      <point x="241.66113783351872" y="-168.02197323225"/>
      <point x="221.04" y="-145.85" type="curve"/>
      <point x="181.68" y="-181.5" type="line"/>
      <point x="208.68" y="-215.3"/>
      <point x="251.06" y="-236.1"/>
      <point x="315.84000000000003" y="-236.1" type="curve" smooth="yes"/>
      <point x="390.79294117628" y="-236.1"/>
      <point x="455.34000000000003" y="-207.95"/>
      <point x="455.34000000000003" y="-143.65" type="curve" smooth="yes"/>
      <point x="455.34000000000003" y="-86.61875"/>
      <point x="388.92549421814005" y="-53.56877570466303"/>
      <point x="301.32" y="-57.75" type="curve"/>
      <point x="280.75875003142" y="-77.60496746989233"/>
      <point x="309.26" y="-74.09328316524166"/>
      <point x="311.26" y="-66.95" type="curve"/>
    </contour>
  </outline>
</glyph>
<glyph name="Oslash" format="2">
  <advance width="922.86"/>
  <unicode hex="00D8"/>
  <anchor x="459.82000000000005" y="731.0" name="top"/>
  <outline>
    <contour>
      <point x="811.44" y="725.0" type="line"/>
      <point x="8.94" y="-15.0" type="line"/>
      <point x="99.19999999999999" y="-15.0" type="line"/>
      <point x="901.7" y="725.0" type="line"/>
    </contour>
    <contour>
      <point x="462.02" y="-10.0" type="curve" smooth="yes"/>
      <point x="691.44" y="-10.0"/>
      <point x="868.7" y="138.7"/>
      <point x="868.7" y="355.0" type="curve" smooth="yes"/>
      <point x="868.7" y="572.25"/>
      <point x="691.44" y="720.0"/>
      <point x="462.02" y="720.0" type="curve" smooth="yes"/>
      <point x="232.76" y="720.0"/>
      <point x="55.0" y="572.25"/>
      <point x="55.0" y="355.0" type="curve" smooth="yes"/>
      <point x="55.0" y="138.7"/>
      <point x="232.76" y="-10.0"/>
    </contour>
    <contour>
      <point x="462.02" y="52.0" type="curve" smooth="yes"/>
      <point x="276.02" y="52.0"/>
      <point x="161.86" y="149.05"/>
      <point x="161.86" y="355.0" type="curve" smooth="yes"/>
      <point x="161.86" y="541.45"/>
      <point x="286.68" y="658.0"/>
      <point x="462.02" y="658.0" type="curve" smooth="yes"/>
      <point x="647.94" y="658.0"/>
      <point x="761.92" y="560.95"/>
      <point x="761.92" y="355.0" type="curve" smooth="yes"/>
      <point x="761.92" y="168.55"/>
      <point x="636.44" y="52.0"/>
    </contour>
  </outline>
</glyph>
<glyph name="germandbls" format="2">
  <advance width="721.74"/>
  <unicode hex="00DF"/>
  <outline>
    <contour>
      <point x="43.94" y="508.3" type="line"/>
      <point x="43.94" y="449.9" type="line"/>
      <point x="207.44" y="449.9" type="line"/>
      <point x="207.44" y="508.3" type="line"/>
    </contour>
    <contour>
      <point x="49.94" y="0.0" type="line"/>
      <point x="261.74" y="0.0" type="line"/>
      <point x="261.74" y="570.1" type="line" smooth="yes"/>
      <point x="261.74" y="670.65"/>
      <point x="316.46000000000004" y="693.85"/>
      <point x="389.76" y="693.85" type="curve" smooth="yes"/>
      <point x="464.14" y="693.85"/>
      <point x="509.62" y="659.5"/>
      <point x="509.62" y="593.45" type="curve" smooth="yes"/>
      <point x="509.62" y="509.41776315789474"/>
      <point x="432.98" y="460.2509101380067"/>
      <point x="330.58000000000004" y="449.45" type="curve"/>
      <point x="330.58000000000004" y="396.05" type="line"/>
      <point x="332.82" y="396.0" type="line" smooth="yes"/>
      <point x="467.08" y="395.54933475400554"/>
      <point x="573.9200000000001" y="305.35"/>
      <point x="573.9200000000001" y="186.35" type="curve" smooth="yes"/>
      <point x="573.9200000000001" y="93.6"/>
      <point x="523.5799999999999" y="48.849999999999994"/>
      <point x="439.82" y="48.849999999999994" type="curve" smooth="yes"/>
      <point x="390.34000000000003" y="48.849999999999994"/>
      <point x="338.15999999999997" y="69.0"/>
      <point x="329.62" y="71.9" type="curve"/>
      <point x="329.62" y="10.85" type="line"/>
      <point x="346.68" y="1.85"/>
      <point x="394.52" y="-10.0"/>
      <point x="445.7" y="-10.0" type="curve" smooth="yes"/>
      <point x="574.96" y="-10.0"/>
      <point x="674.4" y="55.3"/>
      <point x="674.4" y="185.6" type="curve" smooth="yes"/>
      <point x="674.4" y="305.07802419409995"/>
      <point x="575.2472437928" y="404.19993711715"/>
      <point x="398.28" y="434.55" type="curve"/>
      <point x="353.22" y="415.55" type="line"/>
      <point x="481.24" y="425.75"/>
      <point x="603.34" y="504.88582887635"/>
      <point x="603.34" y="602.8" type="curve" smooth="yes"/>
      <point x="603.34" y="688.95"/>
      <point x="522.94" y="751.75"/>
      <point x="390.6" y="751.75" type="curve" smooth="yes"/>
      <point x="280.06" y="751.75"/>
      <point x="166.44" y="707.45"/>
      <point x="166.44" y="568.8" type="curve" smooth="yes"/>
      <point x="166.44" y="82.25" type="line" smooth="yes"/>
      <point x="166.44" y="53.7"/>
      <point x="127.44" y="46.55"/>
      <point x="62.94" y="46.55" type="curve" smooth="yes"/>
      <point x="49.94" y="46.55" type="line"/>
    </contour>
  </outline>
</glyph>
<glyph name="Schwa" format="2">
  <advance width="825.56"/>
  <unicode hex="018F"/>
  <outline>
    <contour>
      <point x="398.26" y="720.0" type="curve" smooth="yes"/>
      <point x="235.0" y="720.0"/>
      <point x="127.84" y="645.6"/>
      <point x="62.54" y="555.85" type="curve"/>
      <point x="122.28" y="516.0" type="line"/>
      <point x="170.56" y="582.1"/>
      <point x="255.74" y="658.0"/>
      <point x="395.32" y="658.0" type="curve" smooth="yes"/>
      <point x="557.14" y="658.0"/>
      <point x="665.94" y="549.7300335571999"/>
      <point x="665.94" y="356.05" type="curve" smooth="yes"/>
      <point x="665.94" y="167.845376712075"/>
      <point x="551.8199999999999" y="52.0"/>
      <point x="404.82" y="52.0" type="curve" smooth="yes"/>
      <point x="242.16" y="52.0"/>
      <point x="164.03238652719998" y="142.73503993372498"/>
      <point x="160.18" y="338.85" type="curve"/>
      <point x="129.14" y="316.65" type="line"/>
      <point x="723.44" y="316.65" type="line"/>
      <point x="721.0999999999999" y="378.3" type="line"/>
      <point x="55.0" y="378.3" type="line"/>
      <point x="56.673159069182" y="118.91513616235"/>
      <point x="179.76" y="-10.0"/>
      <point x="404.82" y="-10.0" type="curve" smooth="yes"/>
      <point x="611.4200000000001" y="-10.0"/>
      <point x="770.06" y="140.383241757725"/>
      <point x="770.06" y="357.95" type="curve" smooth="yes"/>
      <point x="770.06" y="579.3614754094001"/>
      <point x="615.48" y="720.0"/>
    </contour>
  </outline>
</glyph>
<glyph name="Ohorn" format="2">
  <advance width="929.0999999999999"/>
  <unicode hex="01A0"/>
  <anchor x="460.22" y="742.0" name="top"/>
  <outline>
    <contour>
      <point x="559.2" y="678.85" type="curve"/>
      <point x="784.38" y="666.6"/>
      <point x="899.5" y="723.5"/>
      <point x="907.98" y="877.0" type="curve"/>
      <point x="816.88" y="877.0" type="line"/>
      <point x="807.66" y="759.5"/>
      <point x="720.6800000000001" y="720.0"/>
      <point x="461.34000000000003" y="720.0" type="curve"/>
      <point x="504.42" y="710.85"/>
      <point x="532.56" y="691.0"/>
    </contour>
    <contour>
      <point x="461.18" y="-10.0" type="curve" smooth="yes"/>
      <point x="690.6" y="-10.0"/>
      <point x="867.86" y="138.7"/>
      <point x="867.86" y="355.0" type="curve" smooth="yes"/>
      <point x="867.86" y="517.5"/>
      <point x="759.02" y="645.05"/>
      <point x="595.82" y="685.8" type="curve"/>
      <point x="558.1800000000001" y="711.05"/>
      <point x="509.64" y="720.0"/>
      <point x="461.18" y="720.0" type="curve" smooth="yes"/>
      <point x="232.76" y="720.0"/>
      <point x="55.0" y="572.2"/>
      <point x="55.0" y="355.0" type="curve" smooth="yes"/>
      <point x="55.0" y="138.7"/>
      <point x="232.76" y="-10.0"/>
    </contour>
    <contour>
      <point x="461.18" y="52.0" type="curve" smooth="yes"/>
      <point x="285.84000000000003" y="52.0"/>
      <point x="160.18" y="168.55"/>
      <point x="160.18" y="355.0" type="curve" smooth="yes"/>
      <point x="160.18" y="541.45"/>
      <point x="285.84000000000003" y="658.0"/>
      <point x="461.18" y="658.0" type="curve" smooth="yes"/>
      <point x="636.44" y="658.0"/>
      <point x="763.1800000000001" y="541.45"/>
      <point x="763.1800000000001" y="355.0" type="curve" smooth="yes"/>
      <point x="763.1800000000001" y="168.55"/>
      <point x="636.44" y="52.0"/>
    </contour>
  </outline>
</glyph>
<glyph name="Uhorn" format="2">
  <advance width="970.48"/>
  <unicode hex="01AF"/>
  <anchor x="488.48" y="663.0" name="top"/>
  <outline>
    <contour>
      <point x="596.86" y="710.0" type="line"/>
      <point x="596.86" y="661.25" type="line"/>
      <point x="607.78" y="661.25" type="line" smooth="yes"/>
      <point x="652.28" y="661.25"/>
      <point x="709.86" y="653.35"/>
      <point x="709.86" y="639.35" type="curve" smooth="yes"/>
      <point x="709.86" y="271.45" type="line" smooth="yes"/>
      <point x="709.86" y="113.2"/>
      <point x="615.48" y="61.15"/>
      <point x="488.18" y="61.15" type="curve" smooth="yes"/>
      <point x="357.68" y="61.15"/>
      <point x="262.9" y="112.95"/>
      <point x="262.9" y="271.45" type="curve" smooth="yes"/>
      <point x="262.9" y="651.25" type="line" smooth="yes"/>
      <point x="262.9" y="658.25"/>
      <point x="320.4" y="661.25"/>
      <point x="365.4" y="661.25" type="curve" smooth="yes"/>
      <point x="375.9" y="661.25" type="line"/>
      <point x="375.9" y="710.0" type="line"/>
      <point x="50.9" y="710.0" type="line"/>
      <point x="50.9" y="661.25" type="line"/>
      <point x="63.9" y="661.25" type="line" smooth="yes"/>
      <point x="121.4" y="661.25"/>
      <point x="163.82" y="654.25"/>
      <point x="163.82" y="625.25" type="curve" smooth="yes"/>
      <point x="163.82" y="271.45" type="line" smooth="yes"/>
      <point x="163.82" y="71.3"/>
      <point x="296.3" y="-10.0"/>
      <point x="476.46000000000004" y="-10.0" type="curve" smooth="yes"/>
      <point x="644.74" y="-10.0"/>
      <point x="780.28" y="70.2"/>
      <point x="780.28" y="271.45" type="curve" smooth="yes"/>
      <point x="780.28" y="619.75" type="line" smooth="yes"/>
      <point x="780.28" y="645.65"/>
      <point x="805.74" y="658.5"/>
      <point x="853.1400000000001" y="664.4" type="curve" smooth="yes"/>
      <point x="954.26" y="680.45"/>
      <point x="1015.7" y="738.05"/>
      <point x="1016.26" y="877.0" type="curve"/>
      <point x="924.74" y="877.0" type="line"/>
      <point x="923.3" y="749.6"/>
      <point x="904.3199999999999" y="710.0"/>
      <point x="736.0799999999999" y="710.0" type="curve" smooth="yes"/>
    </contour>
  </outline>
</glyph>
<glyph name="hungarumlaut" format="2">
  <advance width="587.5"/>
  <unicode hex="02DD"/>
  <anchor x="298.1" y="525.0" name="_top"/>
  <outline>
    <contour>
      <point x="203.26" y="705.7" type="curve" smooth="yes"/>
      <point x="173.32" y="585.95" type="line"/>
      <point x="173.32" y="565.6" type="line"/>
      <point x="206.34" y="565.6" type="line"/>
      <point x="280.18" y="658.45" type="line" smooth="yes"/>
      <point x="296.32000000000005" y="683.2"/>
      <point x="306.22" y="702.0"/>
      <point x="306.22" y="720.8" type="curve" smooth="yes"/>
      <point x="306.22" y="743.55"/>
      <point x="287.34000000000003" y="761.2"/>
      <point x="259.92" y="761.2" type="curve" smooth="yes"/>
      <point x="230.82" y="761.2"/>
      <point x="212.5" y="745.75"/>
    </contour>
    <contour>
      <point x="378.52" y="705.7" type="curve" smooth="yes"/>
      <point x="349.0" y="585.95" type="line"/>
      <point x="349.0" y="565.6" type="line"/>
      <point x="381.52" y="565.6" type="line"/>
      <point x="455.36" y="658.45" type="line" smooth="yes"/>
      <point x="472.0" y="683.2"/>
      <point x="481.4" y="702.0"/>
      <point x="481.4" y="720.8" type="curve" smooth="yes"/>
      <point x="481.4" y="743.55"/>
      <point x="462.6" y="761.2"/>
      <point x="435.6" y="761.2" type="curve" smooth="yes"/>
      <point x="406.5" y="761.2"/>
      <point x="388.18" y="745.75"/>
    </contour>
  </outline>
</glyph>
<glyph name="mu" format="2">
  <advance width="738.64"/>
  <unicode hex="03BC"/>
  <outline>
    <contour>
      <point x="608.12" y="-10.0" type="curve" smooth="yes"/>
      <point x="666.7" y="-10.0"/>
      <point x="706.44" y="20.9"/>
      <point x="730.6600000000001" y="67.9" type="curve"/>
      <point x="687.26" y="100.3" type="line"/>
      <point x="669.0799999999999" y="72.55"/>
      <point x="650.36" y="52.3"/>
      <point x="619.5999999999999" y="52.3" type="curve" smooth="yes"/>
      <point x="594.12" y="52.3"/>
      <point x="578.32" y="64.25"/>
      <point x="578.32" y="96.85" type="curve" smooth="yes"/>
      <point x="578.32" y="508.3" type="line"/>
      <point x="483.02" y="508.3" type="line"/>
      <point x="483.02" y="107.95" type="line"/>
      <point x="491.84000000000003" y="95.9" type="line" smooth="yes"/>
      <point x="489.74" y="28.6"/>
      <point x="537.04" y="-10.0"/>
    </contour>
    <contour>
      <point x="128.28" y="105.6" type="curve"/>
      <point x="153.92000000000002" y="17.0"/>
      <point x="201.42" y="-10.95"/>
      <point x="298.14" y="-10.95" type="curve" smooth="yes"/>
      <point x="393.66" y="-10.95"/>
      <point x="469.44" y="44.4"/>
      <point x="549.3199999999999" y="161.45" type="curve"/>
      <point x="517.5799999999999" y="188.95" type="line"/>
      <point x="459.12" y="101.25"/>
      <point x="390.72" y="55.15"/>
      <point x="309.15999999999997" y="55.15" type="curve" smooth="yes"/>
      <point x="229.48" y="55.15"/>
      <point x="198.42000000000002" y="91.15"/>
      <point x="198.42000000000002" y="184.05" type="curve" smooth="yes"/>
      <point x="198.42000000000002" y="508.3" type="line"/>
      <point x="103.12" y="508.3" type="line"/>
      <point x="103.12" y="-250.0" type="line"/>
      <point x="203.84" y="-250.0" type="line"/>
      <point x="203.84" y="-115.3"/>
      <point x="159.48000000000002" y="-36.25"/>
      <point x="144.10000000000002" y="148.5" type="curve"/>
      <point x="140.2" y="161.75"/>
      <point x="131.5" y="131.1"/>
    </contour>
  </outline>
</glyph>
<glyph name="quoteright" format="2">
  <advance width="268"/>
  <unicode hex="2019"/>
  <outline>
    <contour>
      <point x="103" y="420" type="line"/>
      <point x="162" y="472"/>
      <point x="208" y="554"/>
      <point x="208" y="636" type="curve" smooth="yes"/>
      <point x="208" y="690"/>
      <point x="178" y="715"/>
      <point x="133" y="715" type="curve" smooth="yes"/>
      <point x="94" y="715"/>
      <point x="64" y="689"/>
      <point x="64" y="653" type="curve" smooth="yes"/>
      <point x="64" y="616"/>
      <point x="94" y="593"/>
      <point x="139" y="593" type="curve" smooth="yes"/>
      <point x="149" y="593"/>
      <point x="158" y="593"/>
      <point x="168" y="595" type="curve"/>
      <point x="155" y="605"/>
      <point x="157" y="617"/>
      <point x="152" y="612" type="curve"/>
      <point x="150" y="559"/>
      <point x="91" y="498"/>
      <point x="30" y="453" type="curve"/>
    </contour>
  </outline>
</glyph>
<glyph name="peseta" format="2">
  <advance width="658.0"/>
  <unicode hex="20A7"/>
  <outline>
    <contour>
      <point x="1.6600000000000001" y="0.0" type="line"/>
      <point x="225.10000000000002" y="0.0" type="line"/>
      <point x="225.10000000000002" y="48.75" type="line"/>
      <point x="209.54" y="48.75" type="line" smooth="yes"/>
      <point x="186.22" y="48.75"/>
      <point x="151.22" y="51.75"/>
      <point x="151.22" y="58.65" type="curve" smooth="yes"/>
      <point x="151.22" y="255.0" type="line"/>
      <point x="169.72" y="255.0" type="line" smooth="yes"/>
      <point x="324.26" y="255.0"/>
      <point x="404.98" y="350.8"/>
      <point x="404.98" y="486.0" type="curve" smooth="yes"/>
      <point x="404.98" y="622.0"/>
      <point x="329.02" y="710.0"/>
      <point x="175.72" y="710.0" type="curve" smooth="yes"/>
      <point x="1.6600000000000001" y="710.0" type="line"/>
      <point x="1.6600000000000001" y="661.25" type="line"/>
      <point x="8.7" y="661.25" type="line" smooth="yes"/>
      <point x="37.08" y="661.25"/>
      <point x="56.76" y="654.4"/>
      <point x="56.76" y="625.9" type="curve" smooth="yes"/>
      <point x="56.76" y="84.1" type="line" smooth="yes"/>
      <point x="56.76" y="55.599999999999994"/>
      <point x="37.08" y="48.75"/>
      <point x="8.7" y="48.75" type="curve" smooth="yes"/>
      <point x="1.6600000000000001" y="48.75" type="line"/>
    </contour>
    <contour>
      <point x="177.82" y="650.85" type="line" smooth="yes"/>
      <point x="271.64" y="650.85"/>
      <point x="308.28" y="588.95"/>
      <point x="308.28" y="485.0" type="curve" smooth="yes"/>
      <point x="308.28" y="381.05"/>
      <point x="270.96000000000004" y="312.25"/>
      <point x="171.82" y="312.25" type="curve" smooth="yes"/>
      <point x="151.22" y="312.25" type="line"/>
      <point x="151.22" y="650.85" type="line"/>
    </contour>
    <contour>
      <point x="375.84000000000003" y="449.0" type="line"/>
      <point x="655.78" y="449.0" type="line"/>
      <point x="655.78" y="508.0" type="line"/>
      <point x="521.06" y="508.0" type="line"/>
      <point x="480.62" y="574.5" type="line"/>
      <point x="480.62" y="514.0"/>
      <point x="456.0" y="503.0"/>
      <point x="410.86" y="503.0" type="curve" smooth="yes"/>
      <point x="375.84000000000003" y="503.0" type="line"/>
    </contour>
    <contour>
      <point x="553.98" y="108.8" type="curve" smooth="yes"/>
      <point x="553.98" y="648.0" type="line"/>
      <point x="480.62" y="648.0" type="line"/>
      <point x="480.62" y="500.0" type="line"/>
      <point x="463.29999999999995" y="492.0" type="line"/>
      <point x="463.29999999999995" y="109.0" type="line" smooth="yes"/>
      <point x="463.29999999999995" y="21.0"/>
      <point x="516.4200000000001" y="-11.0"/>
      <point x="599.36" y="-11.0" type="curve" smooth="yes"/>
      <point x="628.9" y="-11.0"/>
      <point x="647.52" y="-8.0"/>
      <point x="658.26" y="-4.8999999999999995" type="curve"/>
      <point x="658.26" y="57.0" type="line"/>
      <point x="646.6600000000001" y="53.15"/>
      <point x="630.5799999999999" y="51.15"/>
      <point x="614.6600000000001" y="51.15" type="curve" smooth="yes"/>
      <point x="574.76" y="51.15"/>
      <point x="553.98" y="67.8"/>
    </contour>
  </outline>
</glyph>
<glyph name="manat" format="2">
  <advance width="658.0"/>
  <unicode hex="20BC"/>
  <outline>
    <contour>
      <point x="296.24" y="720.0" type="line"/>
      <point x="296.24" y="135.5" type="line"/>
      <point x="361.76" y="135.5" type="line"/>
      <point x="361.76" y="720.0" type="line"/>
    </contour>
    <contour>
      <point x="329.0" y="536.1" type="curve" smooth="yes"/>
      <point x="482.23081081088003" y="536.1"/>
      <point x="532.76" y="371.45"/>
      <point x="532.76" y="0.0" type="curve"/>
      <point x="631.56" y="0.0" type="line"/>
      <point x="631.56" y="362.0"/>
      <point x="537.8147169812" y="590.0"/>
      <point x="329.0" y="590.0" type="curve" smooth="yes"/>
      <point x="120.18528301879999" y="590.0"/>
      <point x="26.439999999999998" y="362.0"/>
      <point x="26.439999999999998" y="0.0" type="curve"/>
      <point x="125.24" y="0.0" type="line"/>
      <point x="125.24" y="371.45"/>
      <point x="175.76918918912" y="536.1"/>
    </contour>
  </outline>
</glyph>
<glyph name="arrowleft" format="2">
  <advance width="868.5"/>
  <unicode hex="2190"/>
  <outline>
    <contour>
      <point x="485.5" y="560.0" type="line"/>
      <point x="64.5" y="360.0" type="line"/>
      <point x="64.5" y="346.0" type="line"/>
      <point x="485.5" y="146.0" type="line"/>
      <point x="497.0" y="159.0" type="line"/>
      <point x="333.5" y="324.0" type="line"/>
      <point x="803.5" y="324.0" type="line"/>
      <point x="803.5" y="382.0" type="line"/>
      <point x="333.5" y="382.0" type="line"/>
      <point x="497.0" y="547.0" type="line"/>
    </contour>
  </outline>
</glyph>
<glyph name="minus" format="2">
  <advance width="658.0"/>
  <unicode hex="2212"/>
  <outline>
    <contour>
      <point x="568.24" y="375.85" type="line"/>
      <point x="89.75999999999999" y="375.85" type="line"/>
      <point x="89.75999999999999" y="306.15" type="line"/>
      <point x="568.24" y="306.15" type="line"/>
    </contour>
  </outline>
</glyph>
<glyph name="hook" format="2">
  <advance width="599.5"/>
  <unicode hex="2440"/>
  <anchor x="274.03999999999996" y="517.0" name="_top"/>
  <outline>
    <contour>
      <point x="143.2" y="693.55" type="line"/>
      <point x="148.10000000000002" y="740.05"/>
      <point x="191.88" y="778.9"/>
      <point x="276.12" y="778.9" type="curve" smooth="yes"/>
      <point x="358.65999999999997" y="778.9"/>
      <point x="405.64" y="746.55"/>
      <point x="405.64" y="694.05" type="curve" smooth="yes"/>
      <point x="405.64" y="632.5"/>
      <point x="336.98" y="607.35"/>
      <point x="262.0" y="601.25" type="curve"/>
      <point x="296.70000000000005" y="629.8" type="line"/>
      <point x="296.70000000000005" y="567.35" type="line"/>
      <point x="234.14" y="567.35" type="line"/>
      <point x="234.14" y="638.85" type="line"/>
      <point x="295.44" y="642.0"/>
      <point x="324.2" y="660.8"/>
      <point x="324.2" y="691.65" type="curve" smooth="yes"/>
      <point x="324.2" y="715.35"/>
      <point x="307.58000000000004" y="730.3"/>
      <point x="275.28" y="730.3" type="curve" smooth="yes"/>
      <point x="239.48000000000002" y="730.3"/>
      <point x="223.66" y="714.5"/>
      <point x="219.60000000000002" y="693.55" type="curve"/>
    </contour>
  </outline>
</glyph>
<glyph name="breve_acute.uc" format="2">
  <advance width="599.0799999999999"/>
  <anchor x="294.32" y="744.0" name="_top"/>
  <outline>
    <contour>
      <point x="329.08" y="1025.45" type="curve" smooth="yes"/>
      <point x="249.42000000000002" y="939.2" type="line"/>
      <point x="249.42000000000002" y="916.9" type="line"/>
      <point x="279.78" y="916.9" type="line"/>
      <point x="380.76" y="959.7" type="line" smooth="yes"/>
      <point x="420.48" y="978.8"/>
      <point x="446.03999999999996" y="1000.2"/>
      <point x="446.03999999999996" y="1026.15" type="curve" smooth="yes"/>
      <point x="446.03999999999996" y="1048.05"/>
      <point x="427.48" y="1068.35"/>
      <point x="399.9" y="1068.35" type="curve" smooth="yes"/>
      <point x="371.52" y="1068.35"/>
      <point x="351.88" y="1052.75"/>
    </contour>
    <component base="breve.uc" xOffset="43.60000000000001"/>
  </outline>
</glyph>
<glyph name="caroncomb.alt" format="2">
  <advance width="493.5"/>
  <anchor x="48.94" y="574.0" name="_right"/>
  <outline>
    <contour>
      <point x="125.0" y="526.1" type="line"/>
      <point x="67.1" y="526.1" type="line"/>
      <point x="67.1" y="536.1" type="line"/>
      <point x="88.1" y="710.0" type="line"/>
      <point x="187.42000000000002" y="710.0" type="line"/>
    </contour>
  </outline>
</glyph>
<glyph name="circumflex_acute.uc" format="2">
  <advance width="599.0"/>
  <anchor x="288.0" y="749.0" name="_top"/>
  <outline>
    <contour>
      <point x="507.20000000000005" y="958.85" type="curve" smooth="yes"/>
      <point x="444.54" y="873.2" type="line"/>
      <point x="444.54" y="852.8" type="line"/>
      <point x="472.8" y="852.8" type="line"/>
      <point x="560.52" y="892.0" type="line" smooth="yes"/>
      <point x="599.3" y="910.2"/>
      <point x="623.04" y="932.25"/>
      <point x="623.04" y="958.6" type="curve" smooth="yes"/>
      <point x="623.04" y="982.35"/>
      <point x="604.3199999999999" y="1001.0"/>
      <point x="577.3199999999999" y="1001.0" type="curve" smooth="yes"/>
      <point x="549.1800000000001" y="1001.0"/>
      <point x="527.92" y="986.2"/>
    </contour>
    <component base="circumflex.uc" xOffset="54.46000000000001"/>
  </outline>
</glyph>
<glyph name="currency.proportional" format="2">
  <advance width="716.96"/>
  <outline>
    <contour>
      <point x="515.0" y="373.0" type="curve" smooth="yes"/>
      <point x="515.0" y="293.85"/>
      <point x="453.06837209304" y="243.0"/>
      <point x="358.48" y="243.0" type="curve" smooth="yes"/>
      <point x="263.81162790696" y="243.0"/>
      <point x="201.88" y="294.8"/>
      <point x="201.88" y="373.0" type="curve" smooth="yes"/>
      <point x="201.88" y="452.1"/>
      <point x="263.81162790696" y="503.95"/>
      <point x="358.48" y="503.95" type="curve" smooth="yes"/>
      <point x="453.06837209304" y="503.95"/>
      <point x="515.0" y="452.1"/>
    </contour>
    <contour>
      <point x="115.4" y="373.0" type="curve" smooth="yes"/>
      <point x="115.4" y="254.4"/>
      <point x="224.18792452832" y="169.0"/>
      <point x="358.48" y="169.0" type="curve" smooth="yes"/>
      <point x="492.69207547168" y="169.0"/>
      <point x="601.48" y="254.4"/>
      <point x="601.48" y="373.0" type="curve" smooth="yes"/>
      <point x="601.48" y="492.55"/>
      <point x="492.69207547168" y="577.95"/>
      <point x="358.48" y="577.95" type="curve" smooth="yes"/>
      <point x="224.18792452832" y="577.95"/>
      <point x="115.4" y="492.55"/>
    </contour>
    <contour>
      <point x="57.08" y="581.95" type="line"/>
      <point x="178.16" y="478.6" type="line"/>
      <point x="241.60000000000002" y="524.9" type="line"/>
      <point x="112.6" y="635.25" type="line"/>
    </contour>
    <contour>
      <point x="659.8" y="581.95" type="line"/>
      <point x="604.28" y="635.25" type="line"/>
      <point x="475.28" y="524.9" type="line"/>
      <point x="538.8" y="478.6" type="line"/>
    </contour>
    <contour>
      <point x="57.08" y="164.05" type="line"/>
      <point x="112.6" y="110.75" type="line"/>
      <point x="241.60000000000002" y="221.1" type="line"/>
      <point x="178.16" y="267.4" type="line"/>
    </contour>
    <contour>
      <point x="659.8" y="164.05" type="line"/>
      <point x="538.8" y="267.4" type="line"/>
      <point x="475.28" y="221.1" type="line"/>
      <point x="604.28" y="110.75" type="line"/>
    </contour>
  </outline>
</glyph>
<glyph name="f.alt" format="2">
  <advance width="450.3"/>
  <outline>
    <contour>
      <point x="43.94" y="508.3" type="line"/>
      <point x="43.94" y="449.9" type="line"/>
      <point x="436.03999999999996" y="449.9" type="line"/>
      <point x="436.03999999999996" y="508.3" type="line"/>
    </contour>
    <contour>
      <point x="388.65999999999997" y="0.0" type="line"/>
      <point x="388.65999999999997" y="46.55" type="line"/>
      <point x="373.24" y="46.55" type="line" smooth="yes"/>
      <point x="309.74" y="46.55"/>
      <point x="261.74" y="49.5"/>
      <point x="261.74" y="56.45" type="curve" smooth="yes"/>
      <point x="261.74" y="569.1" type="line" smooth="yes"/>
      <point x="261.74" y="656.4"/>
      <point x="305.53999999999996" y="694.05"/>
      <point x="384.98" y="694.05" type="curve"/>
      <point x="439.26" y="694.05"/>
      <point x="479.72" y="678.35"/>
      <point x="503.15999999999997" y="652.3" type="curve"/>
      <point x="518.14" y="669.35"/>
      <point x="488.66" y="710.55"/>
      <point x="454.66" y="709.7" type="curve"/>
      <point x="454.66" y="611.95" type="line"/>
      <point x="543.5" y="611.95" type="line"/>
      <point x="543.5" y="723.45" type="line"/>
      <point x="527.42" y="732.85"/>
      <point x="466.8" y="751.75"/>
      <point x="387.92" y="751.75" type="curve"/>
      <point x="261.9" y="751.75"/>
      <point x="166.44" y="687.3"/>
      <point x="166.44" y="568.4" type="curve" smooth="yes"/>
      <point x="166.44" y="82.25" type="line" smooth="yes"/>
      <point x="166.44" y="53.7"/>
      <point x="127.44" y="46.55"/>
      <point x="62.94" y="46.55" type="curve" smooth="yes"/>
      <point x="49.94" y="46.55" type="line"/>
      <point x="49.94" y="0.0" type="line"/>
    </contour>
  </outline>
</glyph>
<glyph name="f_f_k" format="2">
  <advance width="1546.3"/>
  <outline>
    <contour>
      <point x="1517.92" y="0.0" type="line"/>
      <point x="1517.92" y="46.55" type="line"/>
      <point x="1515.8400000000001" y="46.55" type="line"/>
      <point x="1472.98" y="46.55"/>
      <point x="1436.8" y="52.7"/>
      <point x="1402.48" y="84.2" type="curve" smooth="yes"/>
      <point x="1162.06" y="311.4" type="line"/>
      <point x="1160.54" y="265.25" type="line"/>
      <point x="1346.7" y="413.3" type="line" smooth="yes"/>
      <point x="1389.3600000000001" y="446.6"/>
      <point x="1432.74" y="461.75"/>
      <point x="1481.1399999999999" y="461.75" type="curve"/>
      <point x="1483.6399999999999" y="461.75" type="line"/>
      <point x="1483.6399999999999" y="508.3" type="line"/>
      <point x="1197.98" y="508.3" type="line"/>
      <point x="1197.98" y="461.75" type="line"/>
      <point x="1202.48" y="461.75" type="line"/>
      <point x="1238.54" y="461.75"/>
      <point x="1298.54" y="458.75"/>
      <point x="1298.54" y="443.75" type="curve"/>
      <point x="1083.12" y="273.4" type="line"/>
      <point x="1083.12" y="266.95" type="line"/>
      <point x="1313.52" y="56.45" type="line"/>
      <point x="1313.52" y="49.5"/>
      <point x="1262.02" y="46.55"/>
      <point x="1228.46" y="46.55" type="curve"/>
      <point x="1224.4" y="46.55" type="line"/>
      <point x="1224.4" y="0.0" type="line"/>
    </contour>
    <contour>
      <point x="43.94" y="508.3" type="line"/>
      <point x="43.94" y="449.9" type="line"/>
      <point x="469.53999999999996" y="449.9" type="line"/>
      <point x="469.53999999999996" y="508.3" type="line"/>
    </contour>
    <contour>
      <point x="438.1" y="508.3" type="line"/>
      <point x="438.1" y="449.9" type="line"/>
      <point x="824.24" y="449.9" type="line"/>
      <point x="824.24" y="508.3" type="line"/>
    </contour>
    <contour>
      <point x="855.6800000000001" y="0.0" type="line"/>
      <point x="1137.98" y="0.0" type="line"/>
      <point x="1137.98" y="46.55" type="line"/>
      <point x="1134.48" y="46.55" type="line" smooth="yes"/>
      <point x="1102.48" y="46.55"/>
      <point x="1049.98" y="49.5"/>
      <point x="1049.98" y="56.45" type="curve"/>
      <point x="1049.98" y="734.75" type="line"/>
      <point x="880.26" y="734.75" type="line"/>
      <point x="954.6800000000001" y="688.65" type="line"/>
      <point x="954.6800000000001" y="56.45" type="line"/>
      <point x="954.6800000000001" y="49.5"/>
      <point x="901.6800000000001" y="46.55"/>
      <point x="868.6800000000001" y="46.55" type="curve" smooth="yes"/>
      <point x="855.6800000000001" y="46.55" type="line"/>
    </contour>
    <contour>
      <point x="261.74" y="56.45" type="curve"/>
      <point x="261.74" y="558.1" type="line" smooth="yes"/>
      <point x="261.74" y="657.45"/>
      <point x="308.34000000000003" y="680.05"/>
      <point x="373.52" y="680.05" type="curve" smooth="yes"/>
      <point x="408.08000000000004" y="680.05"/>
      <point x="438.58000000000004" y="671.2"/>
      <point x="462.32" y="663.55" type="curve"/>
      <point x="462.32" y="727.8" type="line"/>
      <point x="442.08000000000004" y="733.8"/>
      <point x="407.24" y="737.95"/>
      <point x="374.76" y="737.95" type="curve" smooth="yes"/>
      <point x="268.44" y="737.95"/>
      <point x="166.44" y="695.35"/>
      <point x="166.44" y="555.55" type="curve" smooth="yes"/>
      <point x="166.44" y="82.25" type="line"/>
      <point x="166.44" y="53.7"/>
      <point x="127.44" y="46.55"/>
      <point x="62.94" y="46.55" type="curve" smooth="yes"/>
      <point x="49.94" y="46.55" type="line"/>
      <point x="49.94" y="0.0" type="line"/>
      <point x="363.88" y="0.0" type="line"/>
      <point x="363.88" y="46.55" type="line"/>
      <point x="358.53999999999996" y="46.55" type="line" smooth="yes"/>
      <point x="303.02" y="46.55"/>
      <point x="261.74" y="49.5"/>
    </contour>
    <contour>
      <point x="655.82" y="56.45" type="curve"/>
      <point x="655.82" y="571.2" type="line" smooth="yes"/>
      <point x="655.82" y="670.85"/>
      <point x="712.32" y="693.85"/>
      <point x="799.2" y="693.85" type="curve" smooth="yes"/>
      <point x="874.5799999999999" y="693.85"/>
      <point x="933.76" y="676.35"/>
      <point x="985.06" y="620.05" type="curve"/>
      <point x="989.28" y="698.75" type="line"/>
      <point x="945.78" y="730.5"/>
      <point x="881.28" y="751.75"/>
      <point x="801.3" y="751.75" type="curve" smooth="yes"/>
      <point x="674.0999999999999" y="751.75"/>
      <point x="560.52" y="709.15"/>
      <point x="560.52" y="569.35" type="curve"/>
      <point x="560.52" y="56.45" type="line"/>
      <point x="560.52" y="49.5"/>
      <point x="519.24" y="46.55"/>
      <point x="457.84000000000003" y="46.55" type="curve" smooth="yes"/>
      <point x="444.02" y="46.55" type="line"/>
      <point x="444.02" y="0.0" type="line"/>
      <point x="772.74" y="0.0" type="line"/>
      <point x="772.74" y="46.55" type="line"/>
      <point x="757.66" y="46.55" type="line" smooth="yes"/>
      <point x="700.04" y="46.55"/>
      <point x="655.82" y="49.5"/>
    </contour>
  </outline>
</glyph>
<glyph name="f_h" format="2">
  <advance width="1167.18"/>
  <outline>
    <contour>
      <point x="43.94" y="508.3" type="line"/>
      <point x="43.94" y="449.9" type="line"/>
      <point x="430.16" y="449.9" type="line"/>
      <point x="430.16" y="508.3" type="line"/>
    </contour>
    <contour>
      <point x="1139.22" y="0.0" type="line"/>
      <point x="1139.22" y="46.55" type="line"/>
      <point x="1136.72" y="46.55" type="line" smooth="yes"/>
      <point x="1081.48" y="46.55"/>
      <point x="1040.22" y="53.5"/>
      <point x="1040.22" y="82.05" type="curve" smooth="yes"/>
      <point x="1040.22" y="356.3" type="line" smooth="yes"/>
      <point x="1040.22" y="467.6"/>
      <point x="966.9" y="518.3"/>
      <point x="854.46" y="518.3" type="curve" smooth="yes"/>
      <point x="740.3" y="518.3"/>
      <point x="671.16" y="461.85"/>
      <point x="590.44" y="347.05" type="curve"/>
      <point x="621.6800000000001" y="319.35" type="line"/>
      <point x="680.14" y="406.1"/>
      <point x="750.8" y="452.2"/>
      <point x="839.3199999999999" y="452.2" type="curve" smooth="yes"/>
      <point x="918.74" y="452.2"/>
      <point x="944.9200000000001" y="419.05"/>
      <point x="944.9200000000001" y="346.1" type="curve" smooth="yes"/>
      <point x="944.9200000000001" y="56.45" type="line" smooth="yes"/>
      <point x="944.9200000000001" y="49.5"/>
      <point x="891.9200000000001" y="46.55"/>
      <point x="859.4200000000001" y="46.55" type="curve" smooth="yes"/>
      <point x="856.9200000000001" y="46.55" type="line"/>
      <point x="856.9200000000001" y="0.0" type="line"/>
    </contour>
    <contour>
      <point x="743.82" y="0.0" type="line"/>
      <point x="743.82" y="46.55" type="line"/>
      <point x="740.32" y="46.55" type="line" smooth="yes"/>
      <point x="707.32" y="46.55"/>
      <point x="655.82" y="49.5"/>
      <point x="655.82" y="56.45" type="curve"/>
      <point x="655.82" y="734.75" type="line"/>
      <point x="476.02" y="734.75" type="line"/>
      <point x="560.52" y="697.65" type="line"/>
      <point x="560.52" y="56.45" type="line"/>
      <point x="560.52" y="49.5"/>
      <point x="507.52" y="46.55"/>
      <point x="474.6" y="46.55" type="curve" smooth="yes"/>
      <point x="461.6" y="46.55" type="line"/>
      <point x="461.6" y="0.0" type="line"/>
    </contour>
    <contour>
      <point x="378.58000000000004" y="0.0" type="line"/>
      <point x="378.58000000000004" y="46.55" type="line"/>
      <point x="363.58000000000004" y="46.55" type="line" smooth="yes"/>
      <point x="305.96000000000004" y="46.55"/>
      <point x="261.74" y="49.5"/>
      <point x="261.74" y="56.45" type="curve"/>
      <point x="261.74" y="571.2" type="line" smooth="yes"/>
      <point x="261.74" y="670.85"/>
      <point x="318.15999999999997" y="693.85"/>
      <point x="405.12" y="693.85" type="curve" smooth="yes"/>
      <point x="480.5" y="693.85"/>
      <point x="539.6800000000001" y="676.35"/>
      <point x="590.9" y="620.05" type="curve"/>
      <point x="595.2" y="698.75" type="line"/>
      <point x="551.7" y="730.5"/>
      <point x="487.20000000000005" y="751.75"/>
      <point x="407.22" y="751.75" type="curve" smooth="yes"/>
      <point x="279.94" y="751.75"/>
      <point x="166.44" y="709.15"/>
      <point x="166.44" y="569.35" type="curve" smooth="yes"/>
      <point x="166.44" y="82.25" type="line" smooth="yes"/>
      <point x="166.44" y="53.7"/>
      <point x="127.44" y="46.55"/>
      <point x="62.94" y="46.55" type="curve" smooth="yes"/>
      <point x="49.94" y="46.55" type="line"/>
      <point x="49.94" y="0.0" type="line"/>
    </contour>
  </outline>
</glyph>
<glyph name="florin" format="2">
  <advance width="658.0"/>
  <outline>
    <contour>
      <point x="170.64" y="508.0" type="line"/>
      <point x="163.8" y="451.95" type="line"/>
      <point x="578.1" y="451.95" type="line"/>
      <point x="584.94" y="508.0" type="line"/>
    </contour>
    <contour>
      <point x="302.98" y="57.35" type="curve" smooth="yes"/>
      <point x="388.48" y="580.7" type="line" smooth="yes"/>
      <point x="403.28" y="668.25"/>
      <point x="453.22" y="697.6"/>
      <point x="531.96" y="697.6" type="curve" smooth="yes"/>
      <point x="570.7" y="697.6"/>
      <point x="606.2" y="690.6"/>
      <point x="643.86" y="678.9" type="curve"/>
      <point x="649.44" y="746.6" type="line"/>
      <point x="618.94" y="758.6"/>
      <point x="571.7" y="765.7"/>
      <point x="530.54" y="765.7" type="curve" smooth="yes"/>
      <point x="398.94" y="765.7"/>
      <point x="315.52" y="708.35"/>
      <point x="295.52" y="585.65" type="curve" smooth="yes"/>
      <point x="208.24" y="43.35" type="line" smooth="yes"/>
      <point x="178.34" y="-137.55"/>
      <point x="120.82" y="-168.0"/>
      <point x="54.44" y="-168.0" type="curve" smooth="yes"/>
      <point x="23.240000000000002" y="-168.0"/>
      <point x="-8.1" y="-160.7"/>
      <point x="-32.0" y="-153.8" type="curve"/>
      <point x="-37.58" y="-221.65" type="line"/>
      <point x="-20.380000000000003" y="-228.8"/>
      <point x="12.9" y="-236.0"/>
      <point x="52.760000000000005" y="-236.0" type="curve" smooth="yes"/>
      <point x="171.22" y="-236.0"/>
      <point x="268.32" y="-155.1"/>
    </contour>
  </outline>
</glyph>
<glyph name="four.den" format="2">
  <advance width="380.65999999999997"/>
  <outline>
    <contour>
      <point x="24.060000000000002" y="84.05" type="line"/>
      <point x="367.32" y="84.05" type="line"/>
      <point x="367.32" y="138.65" type="line"/>
      <point x="54.56" y="138.65" type="line"/>
      <point x="51.18" y="107.45" type="line"/>
      <point x="234.18" y="310.55" type="line"/>
      <point x="250.64" y="342.9" type="line"/>
      <point x="207.14" y="342.9" type="line"/>
      <point x="24.060000000000002" y="141.6" type="line"/>
    </contour>
    <contour>
      <point x="298.96000000000004" y="0.0" type="line"/>
      <point x="298.96000000000004" y="342.9" type="line"/>
      <point x="230.64" y="342.9" type="line"/>
      <point x="222.14" y="313.4" type="line"/>
      <point x="222.14" y="0.0" type="line"/>
    </contour>
  </outline>
</glyph>
<glyph name="heart" format="2">
  <advance width="1058.5"/>
  <outline>
    <contour>
      <point x="516.0" y="-10.0" type="line"/>
      <point x="237.5" y="273.0" type="line" smooth="yes"/>
      <point x="137.5" y="375.0"/>
      <point x="82.0" y="437.0"/>
      <point x="82.0" y="535.0" type="curve" smooth="yes"/>
      <point x="82.0" y="632.0"/>
      <point x="160.0" y="710.0"/>
      <point x="296.0" y="710.0" type="curve" smooth="yes"/>
      <point x="474.5" y="710.0"/>
      <point x="573.5" y="567.0"/>
      <point x="573.5" y="363.0" type="curve"/>
      <point x="485.5" y="363.0" type="line"/>
      <point x="485.5" y="567.0"/>
      <point x="584.0" y="710.0"/>
      <point x="762.5" y="710.0" type="curve" smooth="yes"/>
      <point x="899.0" y="710.0"/>
      <point x="976.5" y="632.0"/>
      <point x="976.5" y="535.0" type="curve" smooth="yes"/>
      <point x="976.5" y="437.0"/>
      <point x="921.0" y="375.0"/>
      <point x="821.5" y="273.0" type="curve" smooth="yes"/>
      <point x="543.0" y="-10.0" type="line"/>
    </contour>
  </outline>
</glyph>
<glyph name="minus.sub" format="2">
  <advance width="470.0"/>
  <outline>
    <contour>
      <point x="411.0" y="105.25" type="line"/>
      <point x="59.0" y="105.25" type="line"/>
      <point x="59.0" y="54.75" type="line"/>
      <point x="411.0" y="54.75" type="line"/>
    </contour>
  </outline>
</glyph>
<glyph name="one.lin" format="2">
  <advance width="658.0"/>
  <outline>
    <contour>
      <point x="401.15999999999997" y="85.25" type="curve" smooth="yes"/>
      <point x="401.15999999999997" y="710.0" type="line"/>
      <point x="334.28" y="710.0" type="line"/>
      <point x="292.18" y="659.15"/>
      <point x="208.0" y="635.9"/>
      <point x="97.18" y="633.95" type="curve"/>
      <point x="97.18" y="570.5" type="line"/>
      <point x="200.0" y="568.55"/>
      <point x="297.65999999999997" y="599.2"/>
      <point x="319.74" y="647.4" type="curve"/>
      <point x="325.74" y="660.35"/>
      <point x="318.08" y="657.85"/>
      <point x="302.08" y="636.6" type="curve"/>
      <point x="302.08" y="85.25" type="line" smooth="yes"/>
      <point x="302.08" y="55.75"/>
      <point x="255.07999999999998" y="48.75"/>
      <point x="178.57999999999998" y="48.75" type="curve" smooth="yes"/>
      <point x="115.82" y="48.75" type="line"/>
      <point x="115.82" y="0.0" type="line"/>
      <point x="586.22" y="0.0" type="line"/>
      <point x="586.22" y="48.75" type="line"/>
      <point x="536.16" y="48.75" type="line" smooth="yes"/>
      <point x="452.65999999999997" y="48.75"/>
      <point x="401.15999999999997" y="55.75"/>
    </contour>
  </outline>
</glyph>
<glyph name="slash.uc" format="2">
  <advance width="497.28"/>
  <outline>
    <contour>
      <point x="412.02" y="749.5" type="line"/>
      <point x="7.42" y="-38.75" type="line"/>
      <point x="93.34" y="-38.75" type="line"/>
      <point x="497.94" y="749.5" type="line"/>
    </contour>
  </outline>
</glyph>
<glyph name="three.old" format="2">
  <advance width="658.0"/>
  <outline>
    <contour>
      <point x="322.12" y="-88.0" type="curve" smooth="yes"/>
      <point x="432.62" y="-88.0"/>
      <point x="507.02" y="-37.6"/>
      <point x="507.02" y="52.55" type="curve" smooth="yes"/>
      <point x="507.02" y="138.45"/>
      <point x="447.48" y="194.15"/>
      <point x="297.79999999999995" y="194.15" type="curve" smooth="yes"/>
      <point x="213.3" y="194.15" type="line"/>
      <point x="213.3" y="252.85" type="line"/>
      <point x="283.8" y="252.85" type="line" smooth="yes"/>
      <point x="402.7" y="252.85"/>
      <point x="477.08" y="295.5"/>
      <point x="477.08" y="382.35" type="curve" smooth="yes"/>
      <point x="477.08" y="463.85"/>
      <point x="408.15999999999997" y="497.2"/>
      <point x="322.28" y="497.2" type="curve" smooth="yes"/>
      <point x="230.10000000000002" y="497.2"/>
      <point x="169.7" y="461.15"/>
      <point x="133.84" y="414.5" type="curve"/>
      <point x="137.5" y="450.7"/>
      <point x="155.24" y="474.1"/>
      <point x="179.5" y="478.05" type="curve"/>
      <point x="179.5" y="371.5" type="line"/>
      <point x="83.52" y="371.5" type="line"/>
      <point x="83.52" y="464.15" type="line"/>
      <point x="118.6" y="508.8"/>
      <point x="205.22" y="558.0"/>
      <point x="324.36" y="558.0" type="curve" smooth="yes"/>
      <point x="469.88" y="558.0"/>
      <point x="575.04" y="493.8"/>
      <point x="575.04" y="393.8" type="curve" smooth="yes"/>
      <point x="575.04" y="290.7"/>
      <point x="450.74" y="220.75"/>
      <point x="293.18" y="220.75" type="curve"/>
      <point x="314.18" y="231.25" type="line"/>
      <point x="534.0799999999999" y="231.25"/>
      <point x="607.9200000000001" y="151.9"/>
      <point x="607.9200000000001" y="52.1" type="curve" smooth="yes"/>
      <point x="607.9200000000001" y="-67.75"/>
      <point x="488.20000000000005" y="-150.0"/>
      <point x="322.12" y="-150.0" type="curve" smooth="yes"/>
      <point x="168.68" y="-150.0"/>
      <point x="75.12" y="-88.45"/>
      <point x="29.36" y="1.200000000000001" type="curve"/>
      <point x="82.56" y="42.95" type="line"/>
      <point x="118.64" y="-20.650000000000002"/>
      <point x="187.28" y="-88.0"/>
    </contour>
  </outline>
</glyph>
<glyph name="two.den" format="2">
  <advance width="380.5"/>
  <outline>
    <contour>
      <point x="219.06" y="57.7" type="line" smooth="yes"/>
      <point x="272.06" y="57.7"/>
      <point x="292.06" y="61.7"/>
      <point x="294.56" y="80.9" type="curve" smooth="yes"/>
      <point x="300.06" y="119.35" type="line"/>
      <point x="343.58" y="119.35" type="line"/>
      <point x="343.58" y="0.0" type="line"/>
      <point x="30.5" y="0.0" type="line"/>
      <point x="30.5" y="67.55" type="line"/>
      <point x="143.24" y="122.55"/>
      <point x="245.76" y="173.0"/>
      <point x="245.76" y="249.2" type="curve" smooth="yes"/>
      <point x="245.76" y="290.8"/>
      <point x="220.57999999999998" y="307.7"/>
      <point x="177.89999999999998" y="307.7" type="curve" smooth="yes"/>
      <point x="134.16" y="307.7"/>
      <point x="101.44" y="284.35"/>
      <point x="83.78" y="259.7" type="curve"/>
      <point x="85.04" y="279.55"/>
      <point x="95.7" y="300.75"/>
      <point x="109.96000000000001" y="301.8" type="curve"/>
      <point x="109.96000000000001" y="237.8" type="line"/>
      <point x="39.72" y="237.8" type="line"/>
      <point x="39.72" y="290.3" type="line"/>
      <point x="61.56" y="320.05"/>
      <point x="114.84" y="347.9"/>
      <point x="183.94" y="347.9" type="curve" smooth="yes"/>
      <point x="275.98" y="347.9"/>
      <point x="328.15999999999997" y="312.45"/>
      <point x="328.15999999999997" y="247.2" type="curve" smooth="yes"/>
      <point x="328.15999999999997" y="162.5"/>
      <point x="184.94" y="92.9"/>
      <point x="66.0" y="42.55" type="curve"/>
      <point x="60.0" y="43.5"/>
      <point x="59.16" y="54.65"/>
      <point x="61.0" y="57.7" type="curve"/>
    </contour>
  </outline>
</glyph>
<glyph name="zero.den" format="2">
  <advance width="381.64"/>
  <outline>
    <contour>
      <point x="190.82" y="348.85" type="curve" smooth="yes"/>
      <point x="94.68" y="348.85"/>
      <point x="26.98" y="278.75"/>
      <point x="26.98" y="170.9" type="curve" smooth="yes"/>
      <point x="26.98" y="64.05"/>
      <point x="94.68" y="-6.05"/>
      <point x="190.82" y="-6.05" type="curve" smooth="yes"/>
      <point x="287.04" y="-6.05"/>
      <point x="354.32" y="64.05"/>
      <point x="354.32" y="171.85" type="curve" smooth="yes"/>
      <point x="354.32" y="278.75"/>
      <point x="287.04" y="348.85"/>
    </contour>
    <contour>
      <point x="190.82" y="34.15" type="curve" smooth="yes"/>
      <point x="140.0" y="34.15"/>
      <point x="110.92" y="77.65"/>
      <point x="110.92" y="170.9" type="curve" smooth="yes"/>
      <point x="110.92" y="264.2"/>
      <point x="140.0" y="308.65"/>
      <point x="190.82" y="308.65" type="curve" smooth="yes"/>
      <point x="241.3" y="308.65"/>
      <point x="270.38" y="265.15"/>
      <point x="270.38" y="171.85" type="curve" smooth="yes"/>
      <point x="270.38" y="78.6"/>
      <point x="241.3" y="34.15"/>
    </contour>
  </outline>
</glyph>
